HIERARCHY
ROOT Hips
{
	OFFSET 0.000000 83.214638 0.000000
	CHANNELS 6 Xposition Yposition Zposition Xrotation Yrotation Zrotation
	JOINT Pelvis
	{
		OFFSET 0.000000 0.000000 0.000000
		CHANNELS 3 Xrotation Yrotation Zrotation
		JOINT LeftUpLeg
		{
			OFFSET 8.479700 -4.795502 -0.379100
			CHANNELS 3 Xrotation Yrotation Zrotation
			JOINT LeftLeg
			{
				OFFSET 0.024144 -32.555107 0.112900
				CHANNELS 3 Xrotation Yrotation Zrotation
				JOINT LeftFoot
				{
					OFFSET -0.024144 -32.638630 -3.012600
					CHANNELS 3 Xrotation Yrotation Zrotation
					JOINT LeftToeBase
					{
						OFFSET 0.970200 -13.225400 11.864200
						CHANNELS 3 Xrotation Yrotation Zrotation
						End Site
						{
							OFFSET 0.000000 12.319262 0.000000
						}
					}
					JOINT LFootTongue
					{
						OFFSET 1.142400 -1.059800 6.665200
						CHANNELS 3 Xrotation Yrotation Zrotation
						End Site
						{
							OFFSET 0.000000 12.319262 0.000000
						}
					}
				}
				JOINT LeftPantLeg
				{
					OFFSET 0.918482 -16.533964 -2.284700
					CHANNELS 3 Xrotation Yrotation Zrotation
					End Site
					{
						OFFSET 0.350399 24.744368 0.000000
					}
				}
			}
		}
		JOINT RightUpLeg
		{
			OFFSET -8.479700 -4.795502 -0.379100
			CHANNELS 3 Xrotation Yrotation Zrotation
			JOINT RightLeg
			{
				OFFSET -0.023144 -32.555092 0.112900
				CHANNELS 3 Xrotation Yrotation Zrotation
				JOINT RightFoot
				{
					OFFSET 0.023144 -32.638641 -3.012700
					CHANNELS 3 Xrotation Yrotation Zrotation
					JOINT RightToeBase
					{
						OFFSET -0.970200 -13.225400 11.864200
						CHANNELS 3 Xrotation Yrotation Zrotation
						End Site
						{
							OFFSET 0.000000 12.319244 0.000000
						}
					}
					JOINT RFootTongue
					{
						OFFSET -1.142200 -1.059800 6.665200
						CHANNELS 3 Xrotation Yrotation Zrotation
						End Site
						{
							OFFSET 0.000000 12.319243 0.000000
						}
					}
				}
				JOINT RightPantLeg
				{
					OFFSET -0.919482 -16.533978 -2.284800
					CHANNELS 3 Xrotation Yrotation Zrotation
					End Site
					{
						OFFSET -0.350400 24.744419 0.000000
					}
				}
			}
		}
	}
	JOINT Spine
	{
		OFFSET 0.000000 7.722000 1.166200
		CHANNELS 3 Xrotation Yrotation Zrotation
		JOINT Spine1
		{
			OFFSET 0.000000 12.024101 0.248800
			CHANNELS 3 Xrotation Yrotation Zrotation
			JOINT Spine2
			{
				OFFSET 0.000000 11.502998 -0.491200
				CHANNELS 3 Xrotation Yrotation Zrotation
				JOINT Neck
				{
					OFFSET 0.000000 18.430702 -3.123100
					CHANNELS 3 Xrotation Yrotation Zrotation
					JOINT Head
					{
						OFFSET 0.000000 9.051102 1.034000
						CHANNELS 3 Xrotation Yrotation Zrotation
						JOINT HairB
						{
							OFFSET 0.208400 24.786102 24.822300
							CHANNELS 3 Xrotation Yrotation Zrotation
							End Site
							{
								OFFSET 0.000000 32.263779 0.000000
							}
						}
						JOINT HairA
						{
							OFFSET -7.081100 24.428299 23.196600
							CHANNELS 3 Xrotation Yrotation Zrotation
							End Site
							{
								OFFSET 0.000000 32.263779 0.000000
							}
						}
						JOINT Hat
						{
							OFFSET 16.728800 15.048294 -15.439601
							CHANNELS 3 Xrotation Yrotation Zrotation
							End Site
							{
								OFFSET 0.000000 32.263779 0.000000
							}
						}
					}
				}
				JOINT LeftShoulder
				{
					OFFSET 6.197800 13.665199 -4.064700
					CHANNELS 3 Xrotation Yrotation Zrotation
					JOINT LeftArm
					{
						OFFSET 7.778100 -0.187103 -1.709300
						CHANNELS 3 Xrotation Yrotation Zrotation
						JOINT LeftForeArm
						{
							OFFSET 22.049376 0.000000 0.000000
							CHANNELS 3 Xrotation Yrotation Zrotation
							JOINT LeftHand
							{
								OFFSET 23.009392 0.000000 0.000000
								CHANNELS 3 Xrotation Yrotation Zrotation
								JOINT LeftHandThumb1
								{
									OFFSET 3.507191 -2.063065 3.133727
									CHANNELS 3 Xrotation Yrotation Zrotation
									JOINT LeftHandThumb2
									{
										OFFSET 3.101337 -1.790558 1.790558
										CHANNELS 3 Xrotation Yrotation Zrotation
										JOINT LeftHandThumb3
										{
											OFFSET 3.058640 -1.765907 1.765906
											CHANNELS 3 Xrotation Yrotation Zrotation
											End Site
											{
												OFFSET -0.415260 3.926476 -0.049563
											}
										}
									}
								}
								JOINT LeftHandIndex1
								{
									OFFSET 11.334419 -0.901459 3.706815
									CHANNELS 3 Xrotation Yrotation Zrotation
									JOINT LeftHandIndex2
									{
										OFFSET 3.283112 0.000000 0.000000
										CHANNELS 3 Xrotation Yrotation Zrotation
										JOINT LeftHandIndex3
										{
											OFFSET 3.323853 0.000000 0.000000
											CHANNELS 3 Xrotation Yrotation Zrotation
											End Site
											{
												OFFSET -1.135597 3.097809 0.402452
											}
										}
									}
								}
								JOINT LeftHandMiddle1
								{
									OFFSET 11.335861 0.000000 0.000000
									CHANNELS 3 Xrotation Yrotation Zrotation
									JOINT LeftHandMiddle2
									{
										OFFSET 3.410492 0.000000 0.000000
										CHANNELS 3 Xrotation Yrotation Zrotation
										JOINT LeftHandMiddle3
										{
											OFFSET 3.312172 0.000000 0.000000
											CHANNELS 3 Xrotation Yrotation Zrotation
											End Site
											{
												OFFSET -1.150200 3.080154 0.400270
											}
										}
									}
								}
								JOINT LeftHandRing1
								{
									OFFSET 11.514786 -0.013176 -3.003090
									CHANNELS 3 Xrotation Yrotation Zrotation
									JOINT LeftHandRing2
									{
										OFFSET 3.053307 0.000000 0.000000
										CHANNELS 3 Xrotation Yrotation Zrotation
										JOINT LeftHandRing3
										{
											OFFSET 3.295807 0.000000 0.000000
											CHANNELS 3 Xrotation Yrotation Zrotation
											End Site
											{
												OFFSET -1.281006 3.013344 0.375733
											}
										}
									}
								}
								JOINT LeftHandPinky1
								{
									OFFSET 10.518692 -0.960396 -5.730441
									CHANNELS 3 Xrotation Yrotation Zrotation
									JOINT LeftHandPinky2
									{
										OFFSET 2.861649 0.000000 0.000000
										CHANNELS 3 Xrotation Yrotation Zrotation
										JOINT LeftHandPinky3
										{
											OFFSET 2.863380 0.000000 0.000000
											CHANNELS 3 Xrotation Yrotation Zrotation
											End Site
											{
												OFFSET -0.843597 2.711159 0.369971
											}
										}
									}
								}
							}
							JOINT LSleeve
							{
								OFFSET 6.676277 -0.344902 -1.011730
								CHANNELS 3 Xrotation Yrotation Zrotation
								End Site
								{
									OFFSET 0.000000 14.885353 0.000000
								}
							}
						}
					}
				}
				JOINT RightShoulder
				{
					OFFSET -6.197800 13.665199 -4.064700
					CHANNELS 3 Xrotation Yrotation Zrotation
					JOINT RightArm
					{
						OFFSET -7.778100 -0.187103 -1.709300
						CHANNELS 3 Xrotation Yrotation Zrotation
						JOINT RightForeArm
						{
							OFFSET -22.049376 0.000000 0.000000
							CHANNELS 3 Xrotation Yrotation Zrotation
							JOINT RightHand
							{
								OFFSET -23.009392 0.000000 0.000000
								CHANNELS 3 Xrotation Yrotation Zrotation
								JOINT RightHandThumb1
								{
									OFFSET -3.507191 -2.063065 3.133727
									CHANNELS 3 Xrotation Yrotation Zrotation
									JOINT RightHandThumb2
									{
										OFFSET -3.101337 -1.790558 1.790558
										CHANNELS 3 Xrotation Yrotation Zrotation
										JOINT RightHandThumb3
										{
											OFFSET -3.058640 -1.765907 1.765906
											CHANNELS 3 Xrotation Yrotation Zrotation
											End Site
											{
												OFFSET 0.415260 3.926476 -0.049563
											}
										}
									}
								}
								JOINT RightHandIndex1
								{
									OFFSET -11.334419 -0.901459 3.706815
									CHANNELS 3 Xrotation Yrotation Zrotation
									JOINT RightHandIndex2
									{
										OFFSET -3.283112 0.000000 0.000000
										CHANNELS 3 Xrotation Yrotation Zrotation
										JOINT RightHandIndex3
										{
											OFFSET -3.323853 0.000000 0.000000
											CHANNELS 3 Xrotation Yrotation Zrotation
											End Site
											{
												OFFSET 1.135597 3.097809 0.402452
											}
										}
									}
								}
								JOINT RightHandMiddle1
								{
									OFFSET -11.335861 0.000000 0.000000
									CHANNELS 3 Xrotation Yrotation Zrotation
									JOINT RightHandMiddle2
									{
										OFFSET -3.410492 0.000000 0.000000
										CHANNELS 3 Xrotation Yrotation Zrotation
										JOINT RightHandMiddle3
										{
											OFFSET -3.312172 0.000000 0.000000
											CHANNELS 3 Xrotation Yrotation Zrotation
											End Site
											{
												OFFSET 1.150200 3.080154 0.400270
											}
										}
									}
								}
								JOINT RightHandRing1
								{
									OFFSET -11.514786 -0.013176 -3.003090
									CHANNELS 3 Xrotation Yrotation Zrotation
									JOINT RightHandRing2
									{
										OFFSET -3.053307 0.000000 0.000000
										CHANNELS 3 Xrotation Yrotation Zrotation
										JOINT RightHandRing3
										{
											OFFSET -3.295807 0.000000 0.000000
											CHANNELS 3 Xrotation Yrotation Zrotation
											End Site
											{
												OFFSET 1.281006 3.013344 0.375733
											}
										}
									}
								}
								JOINT RightHandPinky1
								{
									OFFSET -10.518692 -0.960396 -5.730441
									CHANNELS 3 Xrotation Yrotation Zrotation
									JOINT RightHandPinky2
									{
										OFFSET -2.861649 0.000000 0.000000
										CHANNELS 3 Xrotation Yrotation Zrotation
										JOINT RightHandPinky3
										{
											OFFSET -2.863380 0.000000 0.000000
											CHANNELS 3 Xrotation Yrotation Zrotation
											End Site
											{
												OFFSET 0.843597 2.711159 0.369971
											}
										}
									}
								}
							}
							JOINT RSleeve
							{
								OFFSET -6.676277 -0.344902 -1.011730
								CHANNELS 3 Xrotation Yrotation Zrotation
								End Site
								{
									OFFSET 0.000000 14.885353 0.000000
								}
							}
						}
					}
				}
				JOINT Backpack
				{
					OFFSET 0.000000 -2.471497 36.677502
					CHANNELS 3 Xrotation Yrotation Zrotation
					End Site
					{
						OFFSET 0.000000 20.427315 0.000000
					}
				}
				JOINT Hood
				{
					OFFSET 0.000000 18.754097 -10.431000
					CHANNELS 3 Xrotation Yrotation Zrotation
					JOINT Hood1
					{
						OFFSET 0.000000 -5.011002 -7.685901
						CHANNELS 3 Xrotation Yrotation Zrotation
						End Site
						{
							OFFSET 0.000000 9.175140 0.000000
						}
					}
				}
				JOINT LHoodieString
				{
					OFFSET 5.250500 16.397697 3.089900
					CHANNELS 3 Xrotation Yrotation Zrotation
					JOINT LHoodieString1
					{
						OFFSET 0.257700 -6.364304 3.694600
						CHANNELS 3 Xrotation Yrotation Zrotation
						JOINT LHoodieString2
						{
							OFFSET 0.000000 -9.643799 2.679100
							CHANNELS 3 Xrotation Yrotation Zrotation
							End Site
							{
								OFFSET 0.000000 10.009018 0.000000
							}
						}
					}
				}
				JOINT RHoodieString
				{
					OFFSET -5.250500 16.397697 3.089900
					CHANNELS 3 Xrotation Yrotation Zrotation
					JOINT RHoodieString1
					{
						OFFSET -0.257700 -6.364304 3.694600
						CHANNELS 3 Xrotation Yrotation Zrotation
						JOINT RHoodieString2
						{
							OFFSET 0.000000 -9.643799 2.679100
							CHANNELS 3 Xrotation Yrotation Zrotation
							End Site
							{
								OFFSET 0.000000 10.009018 0.000000
							}
						}
					}
				}
			}
			JOINT LBackpack_Strap
			{
				OFFSET 15.223200 -7.719803 -6.610900
				CHANNELS 3 Xrotation Yrotation Zrotation
				End Site
				{
					OFFSET 0.000000 16.040596 0.000000
				}
			}
			JOINT RBackpack_Strap
			{
				OFFSET -15.223000 -7.719803 -6.610900
				CHANNELS 3 Xrotation Yrotation Zrotation
				End Site
				{
					OFFSET 0.000000 16.040596 0.000000
				}
			}
		}
	}
	JOINT BoyFacialAnim_Joint
	{
		OFFSET 1.000000 -82.208099 -1.550900
		CHANNELS 3 Xrotation Yrotation Zrotation
		End Site
		{
			OFFSET 0.000000 30.012791 0.000000
		}
	}
}
MOTION
Frames: 4
Frame Time: 0.033333
-2.122731 80.548737 0.321325 -24.101024 -64.421887 -18.539872 -0.000001 0.000000 0.000000 -3.109519 17.571449 19.345655 17.634001 -7.561471 -0.572501 -1.145201 -5.616689 -12.291569 0.000000 0.000001 -0.000001 0.000000 0.000001 -0.000001 -0.000000 0.000003 0.000000 -6.557222 -20.096804 -22.211644 29.347311 9.744573 0.572457 -16.886109 2.993449 9.492525 0.000000 0.000001 -0.000000 0.000000 0.000001 -0.000000 -0.000001 -0.000000 0.000000 0.520157 -0.284013 1.517895 1.159505 -0.606657 3.578615 1.159005 -0.601943 3.579556 10.984653 10.703009 -6.319795 0.418488 52.150004 -0.001824 0.000000 -0.000000 0.000000 0.000000 -0.000000 0.000000 0.000000 -0.000000 0.000000 -0.056688 1.287263 5.811819 -15.692093 27.436230 -54.547520 0.000066 -68.383874 0.000070 4.991371 -6.138467 -0.805234 -5.051488 6.408292 11.573467 3.318250 19.389848 -1.530430 -0.000000 -0.000001 -0.000001 5.582799 6.758189 -79.098139 5.582793 6.758173 -79.098139 0.000003 -0.000002 -0.000002 4.009692 6.256070 -65.283631 5.413957 6.723684 -77.659804 -0.000000 -0.000002 -0.000004 4.166613 6.325492 -66.715676 5.609846 6.763300 -79.327921 0.000001 0.000001 -0.000000 10.180625 7.289026 -83.627197 6.126806 2.753636 -83.713169 -0.000004 0.000001 -0.000000 -0.000000 -0.000003 -0.000002 -0.833927 -7.431292 -5.228720 -53.379253 53.565461 90.443623 0.000515 100.163406 -0.000523 -6.759627 -3.678167 -17.377277 -0.863527 -8.712318 -7.280225 11.820072 -16.133202 1.068346 -0.000001 0.000001 0.000000 4.792395 -6.606914 71.882810 4.792393 -6.606915 71.882830 -0.000002 -0.000003 0.000001 3.637071 -6.111961 61.480773 4.933065 -6.650945 73.101343 0.000000 -0.000001 0.000001 4.065873 -6.324842 65.437973 5.484497 -6.793042 77.809870 0.000002 -0.000001 0.000004 6.292858 -6.917406 84.574524 6.292883 -6.917426 84.574537 0.000001 -0.000004 0.000001 -0.000000 -0.000001 -0.000002 -0.000000 0.000001 0.000000 -0.000000 0.000001 0.000000 -0.000000 0.000001 0.000000 -0.000000 0.000001 0.000000 -0.000000 0.000001 0.000001 0.000000 -0.000001 0.000001 -0.000000 0.000001 0.000000 -0.000000 0.000001 0.000001 0.000000 -0.000001 0.000001 -0.000000 -0.000000 0.000000 -0.000000 -0.000000 0.000000 -0.000001 0.000000 0.000000 
-2.194206 80.514885 0.182593 -24.272423 -63.848233 -18.389402 -0.000000 0.000000 -0.000000 -2.944172 17.807671 19.298747 17.311669 -7.669807 -0.603169 -0.901723 -6.341692 -12.226760 -0.000000 0.000001 -0.000000 -0.000000 0.000001 0.000000 0.000001 0.000003 0.000001 -6.502200 -20.580489 -22.563897 29.755425 9.743913 0.568472 -17.210408 2.974879 9.380946 0.000000 0.000001 -0.000000 0.000000 0.000001 -0.000000 0.000000 0.000000 -0.000000 0.569208 -0.393211 1.461836 1.260014 -0.812356 3.425739 1.259359 -0.807439 3.427041 10.944080 10.730774 -6.414821 0.063474 52.135145 0.341393 -0.000001 -0.000000 -0.000000 -0.000001 -0.000000 -0.000000 -0.000001 -0.000000 -0.000000 -0.005274 0.976191 5.610858 -15.737283 27.658298 -54.325416 0.000035 -67.903739 0.000050 4.630828 -6.367164 -1.191435 -5.051482 6.408287 11.573457 3.318243 19.389847 -1.530429 0.000000 -0.000001 -0.000000 5.582796 6.758180 -79.098146 5.582796 6.758173 -79.098133 -0.000003 0.000000 -0.000002 4.009691 6.256069 -65.283638 5.413957 6.723682 -77.659797 0.000002 0.000000 -0.000003 4.166619 6.325488 -66.715676 5.609847 6.763294 -79.327921 0.000001 -0.000001 -0.000002 10.180626 7.289025 -83.627204 6.126803 2.753639 -83.713169 -0.000002 0.000000 -0.000002 0.000000 0.000002 0.000001 -0.833840 -7.393629 -5.306690 -53.201395 53.748555 90.375192 -0.000170 100.168324 0.000164 -7.110678 -3.589061 -17.819550 -0.863527 -8.712317 -7.280228 11.820075 -16.133204 1.068351 0.000001 0.000000 0.000002 4.792389 -6.606915 71.882810 4.792396 -6.606913 71.882830 -0.000000 -0.000000 0.000002 3.637074 -6.111960 61.480773 4.933064 -6.650943 73.101343 0.000000 0.000002 -0.000003 4.065872 -6.324837 65.437973 5.484501 -6.793044 77.809870 0.000000 0.000003 0.000004 6.292859 -6.917407 84.574524 6.292880 -6.917429 84.574537 0.000002 0.000002 0.000001 -0.000002 -0.000000 -0.000002 -0.000000 0.000001 0.000000 -0.000000 0.000001 0.000000 -0.000000 0.000001 0.000000 -0.000000 0.000001 0.000000 -0.000000 0.000001 0.000000 -0.000000 0.000001 0.000000 -0.000000 0.000001 0.000000 -0.000000 0.000001 0.000000 -0.000000 0.000001 0.000000 -0.000000 0.000001 -0.000000 -0.000000 0.000001 -0.000000 -0.000000 0.000000 -0.000000 
-2.226038 80.452377 -0.013112 -24.334448 -62.737944 -18.079567 0.000001 -0.000001 -0.000001 -3.083696 18.019427 19.429281 17.228363 -7.763630 -0.655901 -0.626058 -7.689211 -12.124854 -0.000000 0.000002 -0.000001 -0.000000 0.000002 -0.000001 -0.000000 -0.000005 -0.000001 -6.200816 -21.114054 -22.801229 30.292999 9.742383 0.550550 -17.649976 2.438928 9.197820 -0.000000 -0.000000 0.000000 -0.000000 -0.000000 0.000000 0.000001 0.000001 -0.000001 0.646103 -0.589874 1.363537 1.415929 -1.179647 3.152729 1.415158 -1.175574 3.154498 10.944000 10.747173 -6.464630 -0.968964 52.167516 1.022595 0.000000 0.000000 0.000000 0.000000 0.000000 0.000000 0.000000 0.000000 0.000000 0.080913 0.408552 5.378443 -15.598641 28.145053 -53.862233 -0.000039 -67.460262 -0.000031 2.573765 -6.012270 -1.855473 -5.051481 6.408293 11.573464 3.318245 19.389843 -1.530426 -0.000002 -0.000001 0.000001 5.582801 6.758184 -79.098139 5.582795 6.758177 -79.098139 -0.000001 -0.000000 -0.000004 4.009695 6.256069 -65.283631 5.413955 6.723686 -77.659804 0.000002 0.000001 -0.000003 4.166619 6.325490 -66.715676 5.609843 6.763299 -79.327921 0.000004 0.000003 -0.000002 10.180623 7.289026 -83.627197 6.126807 2.753639 -83.713169 -0.000004 -0.000000 0.000001 0.000000 -0.000002 -0.000000 -0.823323 -7.311318 -5.315346 -53.088711 53.749368 90.480861 0.000688 100.022171 -0.000667 -7.164105 -3.539538 -19.158344 -0.863525 -8.712318 -7.280226 11.820076 -16.133202 1.068353 0.000000 -0.000001 0.000001 4.792394 -6.606918 71.882803 4.792395 -6.606917 71.882823 -0.000001 -0.000001 0.000003 3.637070 -6.111960 61.480773 4.933061 -6.650943 73.101343 0.000000 0.000001 -0.000000 4.065868 -6.324844 65.437973 5.484496 -6.793041 77.809870 -0.000002 0.000003 0.000001 6.292861 -6.917408 84.574517 6.292883 -6.917433 84.574531 -0.000000 -0.000001 0.000002 0.000001 -0.000000 -0.000001 0.000000 -0.000001 -0.000001 0.000000 -0.000001 -0.000001 0.000000 -0.000001 -0.000001 0.000000 -0.000001 -0.000001 0.000000 -0.000001 -0.000001 0.000000 -0.000001 -0.000001 0.000000 -0.000001 -0.000001 0.000000 -0.000001 -0.000001 0.000000 -0.000001 -0.000001 -0.000000 0.000001 -0.000001 -0.000000 0.000001 -0.000001 0.000001 -0.000001 -0.000001 
-2.174065 80.349609 -0.247534 -23.984103 -61.206486 -17.415767 -0.000000 -0.000001 -0.000000 -3.984125 18.434747 19.913362 17.651108 -7.831361 -0.744766 -0.391790 -9.889970 -11.936528 -0.000000 0.000002 -0.000000 -0.000000 0.000002 -0.000000 -0.000000 -0.000002 -0.000000 -5.864792 -21.613944 -22.855729 30.973262 9.739876 0.515729 -18.164507 1.400080 8.962115 0.000000 0.000000 0.000000 0.000000 0.000000 0.000000 -0.000003 0.000001 0.000001 0.754968 -0.866377 1.266687 1.632265 -1.675708 2.765340 1.632191 -1.672866 2.767631 10.872513 10.762851 -6.438540 -2.732362 52.295944 1.907144 0.000000 0.000000 -0.000000 0.000000 0.000000 -0.000000 0.000000 0.000000 -0.000000 0.162632 -0.157592 5.155520 -14.984277 28.637422 -53.644449 0.000117 -66.188296 0.000127 -0.618156 -5.254373 -2.258506 -5.051485 6.408292 11.573465 3.318249 19.389843 -1.530428 -0.000004 -0.000001 0.000000 5.582796 6.758184 -79.098133 5.582792 6.758177 -79.098139 0.000001 -0.000003 -0.000004 4.009694 6.256065 -65.283631 5.413959 6.723680 -77.659797 0.000001 -0.000000 -0.000005 4.166610 6.325491 -66.715669 5.609848 6.763292 -79.327921 0.000004 0.000001 -0.000000 10.180621 7.289027 -83.627197 6.126809 2.753641 -83.713169 0.000001 0.000000 -0.000000 -0.000001 -0.000001 0.000001 -0.790971 -7.155640 -5.160604 -53.440674 53.673307 91.037768 0.000278 99.634456 -0.000286 -6.384445 -3.478758 -21.630818 -0.863531 -8.712321 -7.280224 11.820071 -16.133202 1.068345 -0.000000 0.000005 0.000000 4.792391 -6.606915 71.882810 4.792398 -6.606915 71.882830 -0.000001 -0.000000 0.000003 3.637071 -6.111961 61.480773 4.933061 -6.650945 73.101343 0.000001 0.000002 -0.000002 4.065864 -6.324844 65.437973 5.484494 -6.793043 77.809870 -0.000002 -0.000003 0.000003 6.292856 -6.917408 84.574524 6.292878 -6.917426 84.574537 -0.000002 -0.000004 0.000001 -0.000001 -0.000003 -0.000001 0.000000 -0.000001 -0.000000 0.000000 -0.000001 -0.000000 0.000000 -0.000001 -0.000000 0.000000 -0.000001 -0.000000 0.000000 -0.000001 -0.000000 0.000000 0.000001 0.000001 0.000000 -0.000001 -0.000000 0.000000 -0.000001 -0.000000 0.000000 0.000001 0.000001 -0.000000 0.000002 0.000001 -0.000000 0.000002 0.000001 -0.000000 -0.000001 -0.000000 
